<svg width="34" height="45" viewBox="0 0 34 45" fill="none" xmlns="http://www.w3.org/2000/svg">
<g clip-path="url(#clip0_484_555)">
<path d="M26.1297 35.9207C26.0002 37.464 25.8779 38.9521 25.7508 40.4402C25.6681 41.4078 25.6045 42.3779 25.4894 43.342C25.3839 44.2245 24.7555 44.8265 23.8766 44.956C23.656 44.9884 23.4305 44.9992 23.2063 44.9992C18.9879 45.0016 14.7694 45.0016 10.551 45.0004C8.96574 45.0004 8.27625 44.3145 8.16593 42.7377C8.00765 40.4881 7.8038 38.241 7.61555 35.9291C6.76058 36.2793 6.26535 35.7529 5.75693 35.2277C5.11181 34.5622 4.44511 33.917 3.7928 33.2563C3.17286 32.6292 3.16567 32.0033 3.78081 31.3785C4.02063 31.1351 4.29403 30.9229 4.56023 30.689C3.49182 29.0439 2.78315 27.3471 2.38505 25.4693C2.01093 25.4693 1.63921 25.4765 1.26868 25.4681C0.503656 25.4514 0.0216159 24.9993 0.012023 24.2463C-0.00476444 23.0795 -0.00356533 21.9128 0.012023 20.7461C0.022815 20.0122 0.498859 19.5506 1.22792 19.5302C1.59964 19.5194 1.97256 19.5278 2.37906 19.5278C2.78195 17.6836 3.46784 15.9784 4.58421 14.2805C4.35638 14.0994 4.09378 13.9268 3.87314 13.7109C3.14049 12.9915 3.14169 12.3931 3.85755 11.6748C4.55423 10.9758 5.2653 10.2899 5.94759 9.57642C6.40325 9.10037 6.88889 8.78621 7.60835 9.07519C7.70788 7.89287 7.80261 6.75133 7.89973 5.60858C8.01365 4.28357 8.10718 2.95616 8.25347 1.63475C8.3482 0.778585 8.98492 0.174236 9.83869 0.0471313C10.0737 0.0123573 10.3147 0.000366211 10.5534 0.000366211C14.7562 0.000366211 18.9603 0.000366211 23.1631 0.000366211C24.7963 0.000366211 25.4654 0.681458 25.5769 2.32663C25.7292 4.56176 25.9367 6.79209 26.1249 9.07399C26.8732 8.77421 27.3672 9.13155 27.8396 9.62678C28.5315 10.3522 29.2558 11.0453 29.9597 11.7588C30.5592 12.3667 30.5652 12.9963 29.9741 13.6054C29.7354 13.8512 29.468 14.0695 29.191 14.3225C30.2367 15.9557 30.9669 17.656 31.3506 19.5314C31.7487 19.5314 32.1204 19.5242 32.4922 19.5326C33.2308 19.5506 33.7165 20.0002 33.7284 20.7281C33.7476 21.9092 33.7476 23.0915 33.7284 24.2726C33.7165 25.0017 33.232 25.4502 32.4934 25.4693C32.1216 25.4789 31.7499 25.4705 31.3578 25.4705C30.9585 27.3304 30.257 29.0307 29.1635 30.7106C29.4416 30.9457 29.7474 31.1651 30.0052 31.4301C30.5616 32.0009 30.5532 32.6388 29.9932 33.2096C29.2498 33.9674 28.4836 34.7037 27.7461 35.4687C27.3048 35.9231 26.8312 36.1929 26.1297 35.9207ZM16.351 8.74064C12.9264 8.9205 10.0209 10.1364 7.44647 12.4603C7.66951 12.6413 7.88055 12.7864 8.06041 12.9651C8.29664 13.1989 8.32541 13.4735 8.0724 13.7133C7.83618 13.9364 7.57358 13.9052 7.35774 13.6786C7.18387 13.4951 7.04237 13.2816 6.85651 13.0442C4.50507 15.6595 3.26999 18.5721 3.1177 21.98C3.3899 21.98 3.58416 21.9812 3.77841 21.98C4.13454 21.9776 4.43072 22.1047 4.43552 22.492C4.44032 22.8805 4.15373 23.0184 3.7928 23.0172C3.57696 23.016 3.36112 23.0172 3.10931 23.0172C3.28918 26.4466 4.50507 29.352 6.81334 31.9049C7.0124 31.6771 7.17427 31.4589 7.36973 31.2766C7.60116 31.0608 7.86496 31.0632 8.08439 31.2994C8.28824 31.5188 8.28465 31.7742 8.0712 31.9793C7.87815 32.1639 7.64672 32.3078 7.39611 32.4973C10.0281 34.8679 12.9444 36.097 16.351 36.2517C16.351 36.0107 16.3498 35.8464 16.351 35.6821C16.357 35.1929 16.5345 34.9279 16.8606 34.9219C17.1892 34.9147 17.3823 35.1857 17.3882 35.6641C17.3906 35.85 17.3882 36.0371 17.3882 36.2589C20.8129 36.079 23.7195 34.8643 26.2952 32.5333C26.0602 32.3426 25.8335 32.1903 25.6477 31.9973C25.4294 31.7706 25.4306 31.5044 25.6657 31.2826C25.8839 31.0776 26.1381 31.0788 26.3456 31.2922C26.5314 31.4841 26.6789 31.7131 26.8732 31.9637C29.2306 29.3389 30.4645 26.425 30.618 23.016C30.3494 23.016 30.1551 23.0136 29.9621 23.016C29.6047 23.022 29.3337 22.8973 29.293 22.5088C29.2594 22.1934 29.5424 21.9883 29.9824 21.9788C30.1839 21.974 30.3865 21.9776 30.6264 21.9776C30.4453 18.5565 29.233 15.6487 26.9043 13.0742C26.7245 13.2972 26.5794 13.5095 26.4007 13.6893C26.1669 13.9244 25.8923 13.9555 25.6525 13.7013C25.4282 13.4651 25.4606 13.2025 25.6873 12.9867C25.8707 12.8128 26.083 12.6701 26.318 12.4854C23.7123 10.1304 20.7961 8.90612 17.387 8.74783C17.387 9.03442 17.3894 9.24306 17.387 9.45171C17.3835 9.79345 17.2408 10.0656 16.8798 10.0692C16.4925 10.0728 16.3498 9.79105 16.351 9.43012C16.351 9.22268 16.351 9.01643 16.351 8.74064ZM16.8834 43.9643C19.0802 43.9643 21.2781 43.9667 23.4749 43.9631C24.1512 43.9619 24.4594 43.667 24.5121 43.0027C24.5481 42.5566 24.5877 42.1093 24.6236 41.6633C24.7975 39.5504 24.9738 37.4364 25.1405 35.3224C25.1513 35.1905 25.0793 35.0514 25.0457 34.9147C24.927 34.9567 24.7975 34.9818 24.6896 35.043C19.4807 38.0623 14.273 38.0623 9.06047 35.0526C8.94415 34.9854 8.79906 34.9687 8.66716 34.9291C8.64318 35.0694 8.58682 35.2121 8.59881 35.3488C8.80146 37.8645 9.0101 40.379 9.21995 42.8947C9.2883 43.7209 9.5521 43.9619 10.3795 43.9631C12.5487 43.9655 14.7154 43.9643 16.8834 43.9643ZM16.899 1.03519C14.6867 1.03519 12.4743 1.0328 10.262 1.03639C9.64083 1.03759 9.2823 1.31938 9.23553 1.86258C9.0173 4.45144 8.80506 7.04151 8.60001 9.63157C8.58802 9.77906 8.65877 9.93255 8.68994 10.0836C8.82185 10.0333 8.96334 10.0009 9.08445 9.93135C14.267 6.94438 19.4495 6.93958 24.6356 9.92176C24.7651 9.9961 24.9222 10.0201 25.0673 10.068C25.0913 9.91336 25.1477 9.75628 25.1345 9.60399C24.9342 7.11825 24.728 4.63251 24.5181 2.14796C24.4426 1.25583 24.198 1.03519 23.3094 1.03519C21.1738 1.03519 19.037 1.03519 16.899 1.03519ZM4.93914 13.338C5.87804 12.4027 6.78337 11.5022 7.68869 10.6017C7.72466 10.5249 7.52681 10.3882 7.36973 10.2131C7.15029 9.97092 6.98602 9.96013 6.74979 10.2083C6.18382 10.8043 5.59146 11.3751 5.01109 11.9554C4.22688 12.7397 4.22688 12.7397 4.93914 13.338ZM28.7486 13.2996C28.7378 13.3848 28.7282 13.4699 28.7174 13.555C28.8637 13.3668 28.9896 13.1557 29.1623 12.9975C29.4093 12.7708 29.3985 12.6066 29.1575 12.3763C28.5627 11.8091 27.9907 11.218 27.4092 10.6364C26.6369 9.8642 26.6369 9.8642 25.9223 10.688C25.9055 10.7072 25.9079 10.7443 25.9019 10.7719C25.9559 10.7192 26.0086 10.6652 26.0626 10.6124C26.9571 11.5094 27.8528 12.4039 28.7486 13.2996ZM4.97632 31.6879C4.9943 31.6196 5.01229 31.55 5.03028 31.4817C4.89598 31.6423 4.78206 31.827 4.62258 31.9577C4.31081 32.2143 4.34439 32.4086 4.62858 32.6748C5.21734 33.2252 5.77492 33.8103 6.34569 34.3799C7.13231 35.1641 7.13231 35.1641 7.82779 34.2924C7.83618 34.2828 7.83258 34.2636 7.83378 34.2492C7.78342 34.2996 7.73186 34.3511 7.6815 34.4015C6.78097 33.4962 5.87804 32.592 4.97632 31.6879ZM26.071 34.3775C25.9846 34.3679 25.8983 34.3595 25.812 34.3499C26.0002 34.495 26.2125 34.6185 26.3719 34.7924C26.5986 35.0394 26.7617 35.0322 26.9919 34.7912C27.5591 34.1964 28.1502 33.6245 28.7306 33.0429C29.5028 32.2707 29.5028 32.2707 28.6826 31.5548C28.6634 31.538 28.6263 31.5392 28.5987 31.5332C28.6514 31.586 28.703 31.6387 28.7558 31.6915C27.8612 32.586 26.9655 33.4818 26.071 34.3775ZM31.6012 20.5482C31.6012 21.8708 31.6012 23.1587 31.6012 24.4765C31.7883 24.4765 31.9981 24.4561 32.202 24.4813C32.6025 24.5304 32.72 24.365 32.708 23.9753C32.6828 23.1551 32.7116 22.3337 32.6972 21.5123C32.678 20.3875 32.9215 20.5242 31.6612 20.5302C31.6336 20.5314 31.6048 20.547 31.6012 20.5482ZM2.1848 20.5242C1.94978 20.5242 1.74113 20.5446 1.53728 20.5194C1.13798 20.4703 1.02047 20.6346 1.03246 21.0243C1.05764 21.8433 1.02647 22.6646 1.04325 23.4836C1.06604 24.5928 0.783047 24.4909 2.11645 24.4633C2.14163 24.4633 2.16562 24.4345 2.1824 24.4249C2.14763 23.7798 2.08527 23.1407 2.08527 22.5016C2.08527 21.8612 2.14643 21.2221 2.1848 20.5242Z" fill="white"/>
<path d="M16.8439 34.1727C10.3723 34.1572 5.16821 28.9255 5.19579 22.4635C5.22337 15.9835 10.4443 10.801 16.9158 10.8274C23.3694 10.8538 28.5508 16.0615 28.5424 22.5126C28.534 28.983 23.3119 34.1883 16.8439 34.1727ZM6.18985 22.5091C6.19584 28.3751 11.0007 33.1763 16.8667 33.1799C22.7291 33.1823 27.5387 28.3811 27.5495 22.5138C27.5603 16.6346 22.7315 11.8106 16.8487 11.8226C10.9815 11.8334 6.18265 16.6442 6.18985 22.5091Z" fill="white"/>
<path d="M15.387 38.5794C16.6868 38.5794 17.9867 38.5794 19.2865 38.5794C19.4064 38.5794 19.5623 38.535 19.6378 38.5938C19.8177 38.7329 20.0587 38.9092 20.0839 39.095C20.1031 39.2401 19.8573 39.456 19.6858 39.5783C19.5839 39.6514 19.3968 39.613 19.2481 39.613C16.6784 39.6142 14.1076 39.6142 11.5379 39.6142C11.5235 39.6142 11.5079 39.6142 11.4935 39.6142C10.9047 39.6106 10.6661 39.462 10.6649 39.0962C10.6637 38.7281 10.8987 38.5794 11.4875 38.5794C12.7861 38.5794 14.086 38.5794 15.387 38.5794Z" fill="white"/>
<path d="M18.3524 40.913C19.6678 40.913 20.982 40.913 22.2974 40.913C22.4173 40.913 22.5756 40.8722 22.6475 40.9334C22.813 41.0713 23.0277 41.2511 23.0468 41.4322C23.0624 41.5773 22.8442 41.7835 22.6847 41.901C22.5828 41.9754 22.3969 41.9466 22.2482 41.9466C19.6486 41.949 17.0477 41.9478 14.4481 41.9478C14.4181 41.9478 14.3881 41.9478 14.3581 41.9478C13.8509 41.9382 13.6219 41.7763 13.6243 41.4262C13.6267 41.0772 13.8557 40.9154 14.3629 40.9142C15.6927 40.913 17.0225 40.913 18.3524 40.913Z" fill="white"/>
<path d="M22.1703 38.5802C22.2446 38.5802 22.319 38.579 22.3945 38.5802C22.8562 38.5874 23.0888 38.7601 23.0756 39.1006C23.0588 39.5167 22.7662 39.6043 22.4257 39.6127C22.1871 39.6187 21.9472 39.6258 21.7098 39.6043C21.392 39.5755 21.1654 39.4208 21.1846 39.0647C21.2026 38.7373 21.4196 38.6018 21.7218 38.5826C21.8705 38.573 22.0204 38.5802 22.1703 38.5802Z" fill="white"/>
<path d="M11.6228 41.9579C11.4357 41.9459 11.2211 41.9927 11.088 41.9088C10.9129 41.7996 10.6911 41.5862 10.6935 41.4207C10.6971 41.2516 10.9237 40.9854 11.0964 40.9447C11.4214 40.8679 11.7895 40.8679 12.1144 40.9435C12.2895 40.9842 12.5209 41.2432 12.5269 41.4123C12.5329 41.5766 12.3123 41.7936 12.1396 41.9052C12.0077 41.9903 11.7931 41.9447 11.6228 41.9579Z" fill="white"/>
<path d="M15.3918 4.08732C14.062 4.08732 12.7322 4.08852 11.4024 4.08492C11.2561 4.08492 11.0655 4.10171 10.9731 4.02017C10.834 3.89786 10.6878 3.69761 10.6878 3.52974C10.6866 3.38824 10.8628 3.20358 11.0079 3.11485C11.1338 3.0381 11.3245 3.05489 11.4876 3.05489C14.0872 3.05129 16.6881 3.05249 19.2877 3.05369C19.422 3.05369 19.5935 3.01772 19.681 3.08487C19.8513 3.21317 20.0552 3.38584 20.0971 3.5741C20.1631 3.86429 19.9316 4.03216 19.6511 4.07893C19.5204 4.10051 19.3825 4.08732 19.2482 4.08732C17.9627 4.08732 16.6773 4.08732 15.3918 4.08732Z" fill="white"/>
<path d="M18.3487 6.42078C17.0489 6.42078 15.7491 6.42078 14.4481 6.42078C14.3281 6.42078 14.1711 6.46515 14.0967 6.40639C13.918 6.2661 13.6782 6.08863 13.6542 5.90157C13.6351 5.75648 13.8833 5.54304 14.0559 5.42073C14.1591 5.34758 14.3449 5.38715 14.4936 5.38715C17.0633 5.38595 19.6342 5.38595 22.2039 5.38595C22.2338 5.38595 22.2638 5.38595 22.2938 5.38595C22.8418 5.39195 23.0756 5.54783 23.0732 5.90636C23.072 6.2661 22.8406 6.41958 22.2914 6.41958C20.9796 6.42198 19.6642 6.42078 18.3487 6.42078Z" fill="white"/>
<path d="M22.1127 4.08325C21.9641 4.08325 21.7794 4.13841 21.6727 4.07126C21.4832 3.95015 21.2566 3.77867 21.2002 3.58442C21.1175 3.29903 21.3489 3.10478 21.6319 3.0772C21.9569 3.04602 22.2878 3.04602 22.6128 3.0736C22.8946 3.09758 23.0816 3.26786 23.0732 3.57722C23.0648 3.90458 22.8634 4.05447 22.5588 4.08205C22.4113 4.09524 22.2602 4.08445 22.1115 4.08445C22.1127 4.08445 22.1127 4.08325 22.1127 4.08325Z" fill="white"/>
<path d="M11.5811 6.41889C11.4468 6.41889 11.3113 6.42849 11.1782 6.4165C10.8736 6.38772 10.6733 6.23783 10.6649 5.91047C10.6566 5.60111 10.8436 5.43323 11.1254 5.40685C11.436 5.37807 11.7525 5.37687 12.0631 5.40205C12.3629 5.42604 12.5703 5.59271 12.5559 5.92367C12.5427 6.25102 12.3305 6.39251 12.0283 6.4165C11.8808 6.42849 11.7309 6.41889 11.5811 6.41889Z" fill="white"/>
<path d="M19.6979 18.2882C20.1835 18.7606 20.62 19.1851 21.0936 19.6468C21.6464 19.0904 22.2208 18.5076 22.8012 17.9285C23.3551 17.3757 23.7017 17.462 23.9475 18.209C24.5998 20.1888 23.7832 22.3412 21.9786 23.3964C21.8647 23.4635 21.7507 23.5307 21.608 23.6134C22.2747 24.2777 22.9211 24.9192 23.5638 25.5656C24.3228 26.3282 24.3276 27.0644 23.5782 27.8271C23.1069 28.3067 22.6333 28.7851 22.15 29.254C21.4402 29.9411 20.6859 29.9351 19.9857 29.2408C19.0528 28.3139 18.1246 27.381 17.1929 26.4517C17.0886 26.3474 16.9795 26.249 16.784 26.0668C16.4207 26.4649 16.0814 26.857 15.7192 27.2287C15.1137 27.8498 14.5022 28.4638 13.8798 29.0681C12.8654 30.055 11.5584 30.0346 10.5187 29.0669C9.72492 28.3295 9.3448 27.4709 9.71173 26.4193C9.84363 26.0416 10.1182 25.6879 10.4024 25.3941C11.5248 24.2357 12.6783 23.1062 13.8546 21.9299C13.333 21.4095 12.8558 20.8771 12.3138 20.4202C12.1087 20.2475 11.7466 20.2715 11.4744 20.1612C11.2814 20.082 11.0607 19.9669 10.9516 19.8015C10.5247 19.1539 10.141 18.4764 9.73092 17.8181C9.53906 17.5112 9.59422 17.2629 9.84123 17.0195C10.364 16.5063 10.8797 15.9859 11.3953 15.4655C11.6399 15.2185 11.8917 15.1765 12.1963 15.3684C12.803 15.7497 13.4134 16.1262 14.0357 16.4811C14.3475 16.6574 14.5585 16.8816 14.5705 17.2438C14.5909 17.8637 14.9866 18.2318 15.459 18.6131C15.5166 18.4441 15.5658 18.299 15.6149 18.1539C16.4039 15.8696 18.9256 14.6429 21.2039 15.4367C21.891 15.6753 21.9762 16.0267 21.4618 16.5411C20.8862 17.1227 20.2986 17.697 19.6979 18.2882ZM23.1429 26.6963C23.0554 26.5644 22.999 26.4409 22.9103 26.351C21.6368 25.0703 20.3562 23.7957 19.0827 22.515C18.8489 22.28 18.6355 22.2524 18.3932 22.497C17.8896 23.0079 17.3836 23.5139 16.8728 24.0163C16.6306 24.2549 16.6414 24.4684 16.8788 24.7058C18.1594 25.9792 19.4365 27.2575 20.7111 28.5369C20.9653 28.7923 21.1944 28.7827 21.4414 28.5333C21.9234 28.0441 22.415 27.5645 22.8947 27.0728C22.9918 26.9721 23.053 26.8354 23.1429 26.6963ZM14.5921 22.6229C13.4098 23.8077 12.3054 24.9624 11.1471 26.0608C9.99832 27.1496 10.8401 28.2408 11.7706 28.6928C12.1975 28.9003 12.6555 28.8223 12.9817 28.501C14.0213 27.4757 15.0286 26.4169 16.0694 25.3509C15.7324 24.9756 15.6281 24.5019 15.7168 23.9695C15.7324 23.8772 15.6593 23.7465 15.5885 23.6674C15.2756 23.3256 14.9506 22.9971 14.5921 22.6229ZM23.0961 19.0412C22.5362 19.6108 22.0529 20.1108 21.5613 20.6025C21.1488 21.0149 20.9294 21.0102 20.5097 20.5941C19.9593 20.0473 19.4113 19.4969 18.8621 18.9477C18.3189 18.4045 18.3213 18.2582 18.8729 17.7054C19.3309 17.2474 19.789 16.7893 20.2746 16.3025C18.4496 15.8636 16.3368 17.5951 16.4183 19.3914C16.4243 19.5221 16.5011 19.6756 16.5934 19.7715C17.0574 20.2571 17.5323 20.7332 18.0191 21.196C18.1103 21.2835 18.2805 21.3543 18.3992 21.3363C19.0216 21.2404 19.506 21.4562 19.9149 21.9131C20.1236 22.1469 20.3658 22.3496 20.5744 22.5834C20.7363 22.7644 20.8826 22.8004 21.1176 22.7021C22.4618 22.1409 23.318 20.6528 23.0961 19.0412ZM10.7753 17.5711C11.0283 17.9896 11.2957 18.4021 11.532 18.8326C11.6819 19.1048 11.8833 19.2187 12.1843 19.299C12.5248 19.3902 12.887 19.5568 13.1376 19.7967C14.2372 20.8483 15.2984 21.9383 16.3548 22.9959C16.7133 22.6661 17.0503 22.3567 17.4064 22.0294C16.3152 20.9394 15.2588 19.8638 14.1772 18.8146C13.869 18.516 13.7047 18.1851 13.634 17.7738C13.604 17.6011 13.5129 17.3853 13.3786 17.2929C12.9145 16.9728 12.4181 16.697 11.9433 16.4104C11.5488 16.8037 11.171 17.179 10.7753 17.5711Z" fill="white"/>
</g>
<defs>
<clipPath id="clip0_484_555">
<rect width="33.7416" height="45" fill="white"/>
</clipPath>
</defs>
</svg>
