<svg width="32" height="45" viewBox="0 0 32 45" fill="none" xmlns="http://www.w3.org/2000/svg">
<g clip-path="url(#clip0_484_569)">
<mask id="path-1-inside-1_484_569" fill="white">
<path d="M9.0929 45.0002C8.97548 44.9497 8.85924 44.8934 8.73947 44.8499C7.5336 44.4143 6.77744 43.2214 6.90894 41.9556C6.95121 41.5482 7.21423 41.2969 7.59348 41.3028C7.96217 41.3086 8.19583 41.5364 8.23693 41.9403C8.25102 42.0707 8.24162 42.2045 8.25337 42.3349C8.32264 43.1239 8.86863 43.6722 9.66237 43.6758C12.8268 43.6875 15.99 43.6875 19.1543 43.6769C19.9657 43.6746 20.568 43.118 20.5786 42.3067C20.6056 40.1556 20.588 38.0045 20.588 35.7865C16.4831 37.6041 12.4017 37.6241 8.2745 35.7936C8.26276 35.9756 8.24749 36.1129 8.24749 36.2515C8.24515 37.1591 8.25102 38.0679 8.24397 38.9756C8.24045 39.5133 7.97626 39.8221 7.55943 39.808C7.15434 39.794 6.91481 39.4922 6.90777 38.9803C6.90425 38.7619 6.90777 38.5435 6.90777 38.2499C6.61188 38.2499 6.34182 38.2535 6.07176 38.2499C4.80131 38.2335 3.99231 37.4351 3.97587 36.1599C3.96178 35.1349 3.99113 34.1086 3.95943 33.0848C3.95121 32.8358 3.83614 32.5423 3.67293 32.3544C0.897201 29.1724 -0.318063 25.4738 0.0705866 21.2867C0.36178 18.1493 1.62871 15.4065 3.72812 13.0488C3.8655 12.8938 3.95473 12.6425 3.96061 12.4323C3.98409 11.4366 3.96765 10.4409 3.97235 9.44406C3.97822 8.00922 4.77548 7.21196 6.19974 7.21079C6.41697 7.21079 6.63419 7.21079 6.90777 7.21079C6.90777 6.92077 6.90777 6.66363 6.90777 6.40531C6.90777 5.11607 6.90307 3.82684 6.90894 2.53877C6.91364 1.0241 7.93751 0.00256921 9.44515 0.00139504C12.7704 -0.000953295 16.0956 -0.000953295 19.4197 0.00139504C20.8757 0.00256921 21.9066 1.02997 21.9183 2.48359C21.9207 2.73251 21.9312 2.98261 21.9136 3.23036C21.8855 3.63192 21.6048 3.8832 21.2232 3.87028C20.8581 3.85854 20.6209 3.61783 20.5986 3.21862C20.5845 2.98496 20.5997 2.75012 20.5903 2.51529C20.5598 1.75091 20.1348 1.31999 19.3716 1.31881C16.0757 1.31294 12.7798 1.31294 9.48389 1.31881C8.67372 1.31999 8.25337 1.74621 8.24984 2.58104C8.24045 4.35286 8.24632 6.12586 8.24632 7.89768C8.24632 8.46715 8.24632 9.03662 8.24632 9.69415C10.2436 8.77595 12.289 8.31216 14.4318 8.31568C16.5641 8.31803 18.599 8.78183 20.5915 9.6965C20.5915 8.76774 20.5915 7.90824 20.5915 7.04875C20.5915 6.71177 20.5833 6.37478 20.5974 6.03779C20.615 5.63036 20.8898 5.36147 21.2561 5.36617C21.6224 5.37087 21.8972 5.64327 21.9136 6.04719C21.9289 6.41118 21.9172 6.77752 21.9172 7.21079C22.2377 7.21079 22.5383 7.20727 22.8389 7.21196C23.9097 7.22723 24.7727 7.96578 24.835 9.03779C24.9007 10.1767 24.8538 11.3216 24.8808 12.4628C24.8855 12.6601 24.9676 12.8985 25.0968 13.0441C26.8358 14.999 28.0029 17.2405 28.5301 19.8084C28.5536 19.9223 28.5935 20.0327 28.6404 20.1936C28.9821 20.1936 29.3309 20.1818 29.6772 20.1959C30.6271 20.2358 31.2776 20.8241 31.361 21.7693C31.4056 22.2765 31.4033 22.7967 31.3481 23.3028C31.2518 24.1846 30.6166 24.7517 29.7336 24.7987C29.399 24.8163 29.0631 24.801 28.7579 24.801C28.5148 25.7075 28.3293 26.581 28.0463 27.4217C27.4287 29.2605 26.4448 30.8926 25.1637 32.3521C25.0005 32.5376 24.8925 32.8347 24.8855 33.0848C24.8538 34.0652 24.8784 35.0468 24.8714 36.0284C24.8608 37.4574 24.0624 38.2429 22.6264 38.2464C22.4103 38.2476 22.1931 38.2464 21.9195 38.2464C21.9195 38.7349 21.9195 39.1834 21.9195 39.6331C21.9195 40.4679 21.9219 41.3028 21.9195 42.1376C21.916 43.529 21.1974 44.5012 19.8753 44.9133C19.8224 44.9298 19.7767 44.9685 19.7285 44.9967C16.1825 45.0002 12.6377 45.0002 9.0929 45.0002ZM14.4048 35.8206C21.6025 35.8394 27.4557 30.0002 27.4909 22.7673C27.5262 15.5615 21.6859 9.68124 14.4706 9.65658C7.22362 9.63192 1.36217 15.4558 1.34104 22.7016C1.3199 29.9333 7.16491 35.8018 14.4048 35.8206ZM5.30973 11.52C5.83458 11.1583 6.2925 10.846 6.74456 10.5266C6.80914 10.4808 6.8925 10.3998 6.89368 10.3341C6.90542 9.7423 6.90072 9.14934 6.90072 8.5376C6.55552 8.5376 6.27724 8.52233 6.00248 8.54112C5.62792 8.56813 5.33203 8.75012 5.31677 9.14699C5.28976 9.91842 5.30973 10.6898 5.30973 11.52ZM23.5187 11.5129C23.5187 10.6957 23.5234 9.9513 23.5164 9.20687C23.5129 8.84875 23.3085 8.61509 22.9704 8.57047C22.6334 8.52703 22.2858 8.56108 21.9195 8.56108C21.9195 9.14347 21.9125 9.68359 21.9254 10.2225C21.9277 10.32 21.9888 10.4503 22.0651 10.5067C22.523 10.8366 22.9927 11.1513 23.5187 11.5129ZM6.90659 36.8562C6.90659 36.3184 6.91012 35.7807 6.90307 35.2417C6.9019 35.1619 6.88311 35.0456 6.8291 35.0069C6.34299 34.6581 5.84632 34.3223 5.30503 33.9501C5.30503 34.5219 5.32499 35.0186 5.30151 35.5129C5.22988 37.0147 5.57861 36.956 6.81266 36.9079C6.82558 36.9067 6.83732 36.8938 6.90659 36.8562ZM21.9207 36.9184C22.2835 36.9184 22.5923 36.9783 22.8612 36.9008C23.096 36.8327 23.4541 36.6237 23.4671 36.4546C23.5305 35.6421 23.4952 34.8214 23.4952 33.9677C22.9915 34.3176 22.5348 34.6264 22.0898 34.9517C22.0099 35.0104 21.9301 35.1302 21.9277 35.2241C21.9125 35.7736 21.9207 36.3243 21.9207 36.9184ZM28.833 23.419C29.9226 23.6127 30.0307 23.5317 30.0307 22.5595C30.0307 21.4593 30.0095 21.4405 28.8964 21.5345C28.8706 21.5368 28.8459 21.558 28.833 21.5626C28.833 22.1908 28.833 22.8084 28.833 23.419Z"/>
</mask>
<path d="M9.0929 45.0002C8.97548 44.9497 8.85924 44.8934 8.73947 44.8499C7.5336 44.4143 6.77744 43.2214 6.90894 41.9556C6.95121 41.5482 7.21423 41.2969 7.59348 41.3028C7.96217 41.3086 8.19583 41.5364 8.23693 41.9403C8.25102 42.0707 8.24162 42.2045 8.25337 42.3349C8.32264 43.1239 8.86863 43.6722 9.66237 43.6758C12.8268 43.6875 15.99 43.6875 19.1543 43.6769C19.9657 43.6746 20.568 43.118 20.5786 42.3067C20.6056 40.1556 20.588 38.0045 20.588 35.7865C16.4831 37.6041 12.4017 37.6241 8.2745 35.7936C8.26276 35.9756 8.24749 36.1129 8.24749 36.2515C8.24515 37.1591 8.25102 38.0679 8.24397 38.9756C8.24045 39.5133 7.97626 39.8221 7.55943 39.808C7.15434 39.794 6.91481 39.4922 6.90777 38.9803C6.90425 38.7619 6.90777 38.5435 6.90777 38.2499C6.61188 38.2499 6.34182 38.2535 6.07176 38.2499C4.80131 38.2335 3.99231 37.4351 3.97587 36.1599C3.96178 35.1349 3.99113 34.1086 3.95943 33.0848C3.95121 32.8358 3.83614 32.5423 3.67293 32.3544C0.897201 29.1724 -0.318063 25.4738 0.0705866 21.2867C0.36178 18.1493 1.62871 15.4065 3.72812 13.0488C3.8655 12.8938 3.95473 12.6425 3.96061 12.4323C3.98409 11.4366 3.96765 10.4409 3.97235 9.44406C3.97822 8.00922 4.77548 7.21196 6.19974 7.21079C6.41697 7.21079 6.63419 7.21079 6.90777 7.21079C6.90777 6.92077 6.90777 6.66363 6.90777 6.40531C6.90777 5.11607 6.90307 3.82684 6.90894 2.53877C6.91364 1.0241 7.93751 0.00256921 9.44515 0.00139504C12.7704 -0.000953295 16.0956 -0.000953295 19.4197 0.00139504C20.8757 0.00256921 21.9066 1.02997 21.9183 2.48359C21.9207 2.73251 21.9312 2.98261 21.9136 3.23036C21.8855 3.63192 21.6048 3.8832 21.2232 3.87028C20.8581 3.85854 20.6209 3.61783 20.5986 3.21862C20.5845 2.98496 20.5997 2.75012 20.5903 2.51529C20.5598 1.75091 20.1348 1.31999 19.3716 1.31881C16.0757 1.31294 12.7798 1.31294 9.48389 1.31881C8.67372 1.31999 8.25337 1.74621 8.24984 2.58104C8.24045 4.35286 8.24632 6.12586 8.24632 7.89768C8.24632 8.46715 8.24632 9.03662 8.24632 9.69415C10.2436 8.77595 12.289 8.31216 14.4318 8.31568C16.5641 8.31803 18.599 8.78183 20.5915 9.6965C20.5915 8.76774 20.5915 7.90824 20.5915 7.04875C20.5915 6.71177 20.5833 6.37478 20.5974 6.03779C20.615 5.63036 20.8898 5.36147 21.2561 5.36617C21.6224 5.37087 21.8972 5.64327 21.9136 6.04719C21.9289 6.41118 21.9172 6.77752 21.9172 7.21079C22.2377 7.21079 22.5383 7.20727 22.8389 7.21196C23.9097 7.22723 24.7727 7.96578 24.835 9.03779C24.9007 10.1767 24.8538 11.3216 24.8808 12.4628C24.8855 12.6601 24.9676 12.8985 25.0968 13.0441C26.8358 14.999 28.0029 17.2405 28.5301 19.8084C28.5536 19.9223 28.5935 20.0327 28.6404 20.1936C28.9821 20.1936 29.3309 20.1818 29.6772 20.1959C30.6271 20.2358 31.2776 20.8241 31.361 21.7693C31.4056 22.2765 31.4033 22.7967 31.3481 23.3028C31.2518 24.1846 30.6166 24.7517 29.7336 24.7987C29.399 24.8163 29.0631 24.801 28.7579 24.801C28.5148 25.7075 28.3293 26.581 28.0463 27.4217C27.4287 29.2605 26.4448 30.8926 25.1637 32.3521C25.0005 32.5376 24.8925 32.8347 24.8855 33.0848C24.8538 34.0652 24.8784 35.0468 24.8714 36.0284C24.8608 37.4574 24.0624 38.2429 22.6264 38.2464C22.4103 38.2476 22.1931 38.2464 21.9195 38.2464C21.9195 38.7349 21.9195 39.1834 21.9195 39.6331C21.9195 40.4679 21.9219 41.3028 21.9195 42.1376C21.916 43.529 21.1974 44.5012 19.8753 44.9133C19.8224 44.9298 19.7767 44.9685 19.7285 44.9967C16.1825 45.0002 12.6377 45.0002 9.0929 45.0002ZM14.4048 35.8206C21.6025 35.8394 27.4557 30.0002 27.4909 22.7673C27.5262 15.5615 21.6859 9.68124 14.4706 9.65658C7.22362 9.63192 1.36217 15.4558 1.34104 22.7016C1.3199 29.9333 7.16491 35.8018 14.4048 35.8206ZM5.30973 11.52C5.83458 11.1583 6.2925 10.846 6.74456 10.5266C6.80914 10.4808 6.8925 10.3998 6.89368 10.3341C6.90542 9.7423 6.90072 9.14934 6.90072 8.5376C6.55552 8.5376 6.27724 8.52233 6.00248 8.54112C5.62792 8.56813 5.33203 8.75012 5.31677 9.14699C5.28976 9.91842 5.30973 10.6898 5.30973 11.52ZM23.5187 11.5129C23.5187 10.6957 23.5234 9.9513 23.5164 9.20687C23.5129 8.84875 23.3085 8.61509 22.9704 8.57047C22.6334 8.52703 22.2858 8.56108 21.9195 8.56108C21.9195 9.14347 21.9125 9.68359 21.9254 10.2225C21.9277 10.32 21.9888 10.4503 22.0651 10.5067C22.523 10.8366 22.9927 11.1513 23.5187 11.5129ZM6.90659 36.8562C6.90659 36.3184 6.91012 35.7807 6.90307 35.2417C6.9019 35.1619 6.88311 35.0456 6.8291 35.0069C6.34299 34.6581 5.84632 34.3223 5.30503 33.9501C5.30503 34.5219 5.32499 35.0186 5.30151 35.5129C5.22988 37.0147 5.57861 36.956 6.81266 36.9079C6.82558 36.9067 6.83732 36.8938 6.90659 36.8562ZM21.9207 36.9184C22.2835 36.9184 22.5923 36.9783 22.8612 36.9008C23.096 36.8327 23.4541 36.6237 23.4671 36.4546C23.5305 35.6421 23.4952 34.8214 23.4952 33.9677C22.9915 34.3176 22.5348 34.6264 22.0898 34.9517C22.0099 35.0104 21.9301 35.1302 21.9277 35.2241C21.9125 35.7736 21.9207 36.3243 21.9207 36.9184ZM28.833 23.419C29.9226 23.6127 30.0307 23.5317 30.0307 22.5595C30.0307 21.4593 30.0095 21.4405 28.8964 21.5345C28.8706 21.5368 28.8459 21.558 28.833 21.5626C28.833 22.1908 28.833 22.8084 28.833 23.419Z" fill="white" stroke="#0B0C0E" stroke-width="0.4" mask="url(#path-1-inside-1_484_569)"/>
<path d="M21.9573 13.8249L21.9573 13.8249C22.1531 13.989 22.2586 14.1559 22.2896 14.3084C22.3198 14.457 22.2821 14.6045 22.1649 14.7427C22.0506 14.8772 21.9143 14.9359 21.763 14.9291C21.6071 14.9222 21.4232 14.8451 21.2229 14.6818C15.1465 9.724 6.26449 12.5274 4.2174 20.052C2.58002 26.0704 6.71808 32.3194 12.9 33.1648L12.9135 33.0657L12.9 33.1648C18.6331 33.9481 23.8724 30.1507 24.8172 24.4743C25.2498 21.8754 24.7658 19.4203 23.3711 17.1665L23.371 17.1663C23.3401 17.1167 23.3099 17.0707 23.2804 17.026C23.2308 16.9507 23.1836 16.879 23.1402 16.8001C23.0524 16.6382 23.0301 16.4815 23.0592 16.3474C23.0881 16.2139 23.1695 16.0947 23.3047 16.0083C23.5752 15.8354 23.9103 15.8888 24.0781 16.191C24.1714 16.3598 24.2661 16.5277 24.3608 16.6952C24.7484 17.3818 25.1332 18.0634 25.3985 18.7881C27.8721 25.5466 23.5635 32.9851 16.4784 34.2448C10.0884 35.381 4.00614 31.0947 2.88599 24.6627L2.78748 24.6798L2.88599 24.6626C1.80462 18.4549 6.08361 12.3437 12.2814 11.2625L12.2816 11.2624C12.766 11.1768 13.2543 11.1281 13.7471 11.079C13.9781 11.056 14.2101 11.0329 14.4431 11.0058C17.2812 11.0876 19.7861 12.004 21.9573 13.8249Z" fill="white" stroke="#0B0C0E" stroke-width="0.2"/>
<path d="M15.6049 22.7291L15.6049 22.7293C15.6061 23.3695 15.0515 23.9228 14.4101 23.9191C14.4101 23.9191 14.41 23.9191 14.4099 23.9191L15.6049 22.7291ZM15.6049 22.7291C15.6023 22.0869 15.0429 21.5425 14.3984 21.5528L14.3983 21.5528C13.7695 21.563 13.2395 22.0899 13.2291 22.7172M15.6049 22.7291L13.2291 22.7172M13.2291 22.7172C13.2291 22.7172 13.2291 22.7171 13.2291 22.7171L13.3291 22.7189L13.2291 22.7173C13.2291 22.7173 13.2291 22.7172 13.2291 22.7172ZM16.1337 21.1548L16.1847 21.2013L16.2463 21.1702C16.6881 20.9467 17.1292 20.7236 17.5696 20.5008C18.5267 20.0168 19.4812 19.5341 20.4356 19.0509C20.496 19.0204 20.5527 18.9907 20.6086 18.9613C20.6798 18.924 20.7497 18.8872 20.8245 18.8505L20.8245 18.8505C21.0598 18.7349 21.2515 18.7022 21.4003 18.7324C21.5443 18.7617 21.6636 18.853 21.752 19.0219C21.8372 19.1852 21.8413 19.3332 21.7792 19.4664C21.7151 19.6041 21.5735 19.7405 21.3386 19.8599L21.3385 19.8599C19.933 20.5762 18.5267 21.2922 17.1159 21.9942L17.1157 21.9942C16.9833 22.0604 16.8763 22.136 16.8064 22.2455C16.7358 22.3559 16.7114 22.4877 16.7164 22.6492L16.7165 22.6495C16.7335 23.1515 16.6278 23.5853 16.4097 23.9457C16.1917 24.306 15.8577 24.599 15.4089 24.8138L15.4088 24.8138C14.5508 25.2248 13.7084 25.1327 12.9676 24.5238C12.5824 24.207 12.3258 23.8448 12.1965 23.4448C12.0673 23.0448 12.0632 22.6001 12.1939 22.1145C12.2269 21.9933 12.2354 21.8858 12.2001 21.7854C12.1651 21.6854 12.0925 21.6089 12.0002 21.5373L11.9999 21.5371C11.4302 21.0984 10.8663 20.6526 10.302 20.2064C10.1435 20.0811 9.98498 19.9558 9.82629 19.8306L9.82621 19.8306C9.62039 19.6685 9.50841 19.5083 9.4724 19.361C9.43755 19.2184 9.47008 19.0727 9.58684 18.9249L9.58687 18.9249C9.69964 18.782 9.83749 18.7154 9.98959 18.7148C10.1455 18.7141 10.3296 18.783 10.5279 18.9392L10.528 18.9392C11.1094 19.3959 11.6889 19.8539 12.2777 20.3192C12.4926 20.489 12.7087 20.6598 12.9266 20.8318L12.9808 20.8746L13.04 20.8391C13.595 20.5064 14.1273 20.3685 14.6374 20.4192C15.1474 20.4698 15.6467 20.7102 16.1337 21.1548Z" fill="white" stroke="#0B0C0E" stroke-width="0.2"/>
</g>
<defs>
<clipPath id="clip0_484_569">
<rect width="31.3937" height="45" fill="white"/>
</clipPath>
</defs>
</svg>
